<?xml version="1.0" standalone="no"?>
<svg xmlns="http://www.w3.org/2000/svg" viewBox="0 0 88.488 24.240000000000002" width="88.488" height="24.240000000000002"><path fill="#168a37" fill-rule="nonzero" d="M4.15 21.67L0 21.67L0 1.06L8.26 1.06L8.26 5.06L4.15 5.06L4.15 8.35L8.04 8.35L8.04 12.31L4.15 12.31L4.15 21.67ZM13.78 21.67L9.50 21.67L9.50 0.94L13.78 0.94L13.78 21.67ZM20.57 21.86Q15.31 21.86 15.31 16.42L15.31 16.42L15.31 9.36Q15.31 6.86 16.72 5.39Q18.12 3.91 20.57 3.91L20.57 3.91Q23.02 3.91 24.42 5.39Q25.82 6.86 25.82 9.36L25.82 9.36L25.82 16.42Q25.82 21.86 20.57 21.86L20.57 21.86ZM20.57 18.62Q21.07 18.62 21.31 18.26Q21.55 17.90 21.55 17.28L21.55 17.28L21.55 8.69Q21.55 7.15 20.57 7.15L20.57 7.15Q19.58 7.15 19.58 8.69L19.58 8.69L19.58 17.28Q19.58 17.90 19.82 18.26Q20.06 18.62 20.57 18.62L20.57 18.62ZM32.11 24.24Q30.24 24.24 29.17 23.94Q28.10 23.64 27.07 22.80L27.07 22.80L28.51 20.38Q30.05 21.29 31.56 21.29L31.56 21.29Q32.54 21.29 33.05 20.66Q33.55 20.04 33.55 18.96L33.55 18.96L33.55 18Q33.05 19.80 30.89 19.80L30.89 19.80Q29.09 19.80 28.24 18.58Q27.38 17.35 27.38 15.31L27.38 15.31L27.38 8.71Q27.38 6.38 28.16 5.15Q28.94 3.91 30.89 3.91L30.89 3.91Q32.02 3.91 32.68 4.48Q33.34 5.04 33.55 6.07L33.55 6.07L33.55 4.10L37.85 4.10L37.85 18.70Q37.85 21.65 36.48 22.94Q35.11 24.24 32.11 24.24L32.11 24.24ZM32.57 16.63Q33.55 16.63 33.55 14.86L33.55 14.86L33.55 8.59Q33.55 8.06 33.26 7.58Q32.98 7.10 32.54 7.10L32.54 7.10Q31.99 7.10 31.80 7.50Q31.61 7.90 31.61 8.59L31.61 8.59L31.61 14.86Q31.61 15.65 31.80 16.14Q31.99 16.63 32.57 16.63L32.57 16.63ZM43.66 2.93L39.46 2.93L39.46 0L43.66 0L43.66 2.93ZM43.66 21.67L39.46 21.67L39.46 4.10L43.66 4.10L43.66 21.67ZM55.80 21.86Q53.54 21.86 52.19 20.45Q50.83 19.03 50.83 16.56L50.83 16.56L50.83 7.06Q50.83 3.98 52.06 2.42Q53.28 0.86 55.90 0.86L55.90 0.86Q58.18 0.86 59.57 2.11Q60.96 3.36 60.96 5.71L60.96 5.71L60.96 9.26L56.86 9.26L56.86 6.22Q56.86 5.33 56.64 4.99Q56.42 4.66 55.90 4.66L55.90 4.66Q55.34 4.66 55.14 5.04Q54.94 5.42 54.94 6.17L54.94 6.17L54.94 16.51Q54.94 17.33 55.18 17.70Q55.42 18.07 55.90 18.07L55.90 18.07Q56.86 18.07 56.86 16.51L56.86 16.51L56.86 12.79L61.01 12.79L61.01 16.68Q61.01 21.86 55.80 21.86L55.80 21.86ZM67.42 21.86Q62.16 21.86 62.16 16.42L62.16 16.42L62.16 9.36Q62.16 6.86 63.56 5.39Q64.97 3.91 67.42 3.91L67.42 3.91Q69.86 3.91 71.27 5.39Q72.67 6.86 72.67 9.36L72.67 9.36L72.67 16.42Q72.67 21.86 67.42 21.86L67.42 21.86ZM67.42 18.62Q67.92 18.62 68.16 18.26Q68.40 17.90 68.40 17.28L68.40 17.28L68.40 8.69Q68.40 7.15 67.42 7.15L67.42 7.15Q66.43 7.15 66.43 8.69L66.43 8.69L66.43 17.28Q66.43 17.90 66.67 18.26Q66.91 18.62 67.42 18.62L67.42 18.62ZM74.23 21.67L74.23 4.10L78.43 4.10L78.43 6.05Q78.74 5.02 79.52 4.45Q80.30 3.89 81.46 3.89L81.46 3.89L81.46 7.39Q80.57 7.39 79.50 7.64Q78.43 7.90 78.43 8.23L78.43 8.23L78.43 21.67L74.23 21.67ZM86.11 21.86Q84.46 21.86 83.83 21.17Q83.21 20.47 83.21 18.94L83.21 18.94L83.21 7.97L82.03 7.97L82.03 4.78L83.21 4.78L83.21 1.06L87.29 1.06L87.29 4.78L88.49 4.78L88.49 7.97L87.29 7.97L87.29 17.83Q87.29 18.29 87.36 18.50Q87.43 18.72 87.74 18.72L87.74 18.72Q87.98 18.72 88.20 18.70Q88.42 18.67 88.49 18.67L88.49 18.67L88.49 21.55Q88.13 21.65 87.44 21.76Q86.76 21.86 86.11 21.86L86.11 21.86Z"></path></svg>