<?xml version="1.0" standalone="no"?>
<svg xmlns="http://www.w3.org/2000/svg" viewBox="0 0 179.528 57.965" width="179.528" height="57.965"><rect fill="#168a37" width="179.528" height="57.965" x="0" y="0"></rect><path fill="white" fill-rule="nonzero" d="M0 33.65L0 0.29L12.75 0.29L12.75 4.28L5.06 4.28L5.06 14.26L11.09 14.26L11.09 18.24L5.06 18.24L5.06 33.65L0 33.65ZM16.13 33.65L16.13 0.29L21.19 0.29L21.19 29.67L28.09 29.67L28.09 33.65L16.13 33.65ZM38.67 33.95L38.67 33.95Q37.87 33.95 36.93 33.82Q36.00 33.69 35.08 33.28Q34.16 32.87 33.31 32.12Q32.46 31.37 31.81 30.14Q31.15 28.91 30.76 27.10Q30.37 25.29 30.37 22.79L30.37 22.79L30.37 10.98Q30.37 8.46 30.77 6.67Q31.17 4.88 31.84 3.66Q32.50 2.44 33.35 1.72Q34.20 1.00 35.13 0.62Q36.05 0.23 36.97 0.12Q37.89 0 38.67 0L38.67 0Q39.41 0 40.32 0.11Q41.23 0.21 42.14 0.58Q43.05 0.94 43.91 1.65Q44.77 2.36 45.43 3.58Q46.09 4.80 46.49 6.61Q46.89 8.42 46.89 10.98L46.89 10.98L46.89 22.79Q46.89 25.27 46.48 27.06Q46.07 28.85 45.41 30.09Q44.75 31.33 43.88 32.08Q43.01 32.83 42.10 33.25Q41.19 33.67 40.29 33.81Q39.39 33.95 38.67 33.95ZM38.67 30.14L38.67 30.14Q39.41 30.14 39.97 29.88Q40.53 29.63 40.89 29.00Q41.25 28.38 41.44 27.35Q41.62 26.33 41.62 24.77L41.62 24.77L41.62 9.59Q41.62 7.99 41.44 6.91Q41.25 5.84 40.89 5.19Q40.53 4.53 39.97 4.26Q39.41 3.98 38.67 3.98L38.67 3.98Q37.91 3.98 37.34 4.26Q36.78 4.53 36.41 5.19Q36.04 5.84 35.85 6.91Q35.66 7.99 35.66 9.59L35.66 9.59L35.66 24.77Q35.66 26.33 35.85 27.35Q36.04 28.38 36.41 29.00Q36.78 29.63 37.34 29.88Q37.91 30.14 38.67 30.14ZM58.42 33.96L58.42 33.96Q57.83 33.96 57.05 33.84Q56.27 33.71 55.44 33.30Q54.61 32.89 53.81 32.14Q53.01 31.39 52.37 30.15Q51.74 28.91 51.35 27.10Q50.96 25.29 50.96 22.79L50.96 22.79L50.96 10.98Q50.96 8.46 51.37 6.67Q51.78 4.88 52.46 3.66Q53.14 2.44 54.03 1.72Q54.92 1.00 55.88 0.62Q56.84 0.23 57.77 0.12Q58.71 0 59.51 0L59.51 0Q61.54 0 62.94 0.56Q64.34 1.11 65.21 2.08Q66.07 3.05 66.46 4.34Q66.84 5.63 66.84 7.07L66.84 7.07Q66.84 8.14 66.71 9.05Q66.58 9.96 66.37 11.05L66.37 11.05L62.32 11.05L62.32 9.47Q62.32 3.98 59.38 3.98L59.38 3.98Q58.57 3.98 57.99 4.26Q57.40 4.53 57.01 5.19Q56.62 5.84 56.44 6.91Q56.25 7.99 56.25 9.59L56.25 9.59L56.25 24.71Q56.25 26.27 56.44 27.30Q56.62 28.34 57.00 28.96Q57.38 29.59 57.96 29.85Q58.54 30.12 59.34 30.12L59.34 30.12Q60.18 30.12 60.78 29.68Q61.39 29.24 61.78 28.48Q62.17 27.71 62.35 26.68Q62.54 25.64 62.54 24.43L62.54 24.43L62.54 20.08L59.94 20.08L59.94 16.76L67.46 16.76L67.46 33.65L64.10 33.65L63.55 30.49Q62.60 32.34 61.36 33.15Q60.12 33.96 58.42 33.96ZM72.13 33.65L72.13 0.29L77.19 0.29L77.19 33.65L72.13 33.65ZM90.08 33.95L90.08 33.95Q89.30 33.95 88.39 33.82Q87.48 33.69 86.57 33.28Q85.66 32.87 84.83 32.12Q84.00 31.37 83.37 30.14Q82.73 28.91 82.35 27.10Q81.97 25.29 81.97 22.79L81.97 22.79L81.97 10.98Q81.97 8.46 82.36 6.67Q82.75 4.88 83.40 3.66Q84.04 2.44 84.88 1.72Q85.72 1.00 86.62 0.62Q87.52 0.23 88.41 0.12Q89.30 0 90.06 0L90.06 0Q92.05 0 93.39 0.56Q94.73 1.11 95.54 2.08Q96.35 3.05 96.69 4.34Q97.03 5.63 97.03 7.07L97.03 7.07Q97.03 8.14 96.92 9.05Q96.82 9.96 96.60 11.05L96.60 11.05L92.50 11.05L92.50 9.36Q92.50 6.60 91.89 5.23Q91.29 3.87 90.12 3.87L90.12 3.87Q89.41 3.87 88.89 4.14Q88.36 4.41 88.01 5.07Q87.66 5.72 87.47 6.80Q87.29 7.87 87.29 9.47L87.29 9.47L87.29 24.71Q87.29 26.27 87.43 27.30Q87.58 28.34 87.91 28.96Q88.24 29.59 88.78 29.85Q89.32 30.12 90.08 30.12L90.08 30.12Q90.57 30.12 91.02 29.89Q91.46 29.67 91.81 29.19Q92.15 28.71 92.35 27.98Q92.56 27.25 92.56 26.25L92.56 26.25L92.56 22.99L97.19 22.99L97.19 26.07Q97.19 30.10 95.35 32.01Q93.52 33.93 90.08 33.95ZM108.55 33.95L108.55 33.95Q107.75 33.95 106.82 33.82Q105.88 33.69 104.96 33.28Q104.04 32.87 103.19 32.12Q102.34 31.37 101.69 30.14Q101.04 28.91 100.64 27.10Q100.25 25.29 100.25 22.79L100.25 22.79L100.25 10.98Q100.25 8.46 100.65 6.67Q101.05 4.88 101.72 3.66Q102.38 2.44 103.23 1.72Q104.08 1.00 105.01 0.62Q105.94 0.23 106.86 0.12Q107.77 0 108.55 0L108.55 0Q109.30 0 110.21 0.11Q111.11 0.21 112.02 0.58Q112.93 0.94 113.79 1.65Q114.65 2.36 115.31 3.58Q115.98 4.80 116.38 6.61Q116.78 8.42 116.78 10.98L116.78 10.98L116.78 22.79Q116.78 25.27 116.37 27.06Q115.96 28.85 115.29 30.09Q114.63 31.33 113.76 32.08Q112.89 32.83 111.98 33.25Q111.07 33.67 110.18 33.81Q109.28 33.95 108.55 33.95ZM108.55 30.14L108.55 30.14Q109.30 30.14 109.85 29.88Q110.41 29.63 110.77 29.00Q111.13 28.38 111.32 27.35Q111.50 26.33 111.50 24.77L111.50 24.77L111.50 9.59Q111.50 7.99 111.32 6.91Q111.13 5.84 110.77 5.19Q110.41 4.53 109.85 4.26Q109.30 3.98 108.55 3.98L108.55 3.98Q107.79 3.98 107.23 4.26Q106.66 4.53 106.29 5.19Q105.92 5.84 105.73 6.91Q105.55 7.99 105.55 9.59L105.55 9.59L105.55 24.77Q105.55 26.33 105.73 27.35Q105.92 28.38 106.29 29.00Q106.66 29.63 107.23 29.88Q107.79 30.14 108.55 30.14ZM121.56 33.65L121.56 0.29L127.05 0.29Q127.99 0.29 129.11 0.37Q130.23 0.45 131.36 0.75Q132.48 1.05 133.53 1.66Q134.57 2.27 135.38 3.32Q136.19 4.38 136.68 5.97Q137.17 7.56 137.17 9.82L137.17 9.82L137.17 10.66Q137.17 14.47 136.07 16.87Q134.98 19.26 132.85 20.31L132.85 20.31L138.20 33.65L132.85 33.65L128.42 21.17L126.52 21.17L126.52 33.65L121.56 33.65ZM126.52 17.52L127.29 17.52Q128.61 17.52 129.53 17.23Q130.45 16.93 131.02 16.24Q131.58 15.55 131.84 14.40Q132.09 13.26 132.09 11.58L132.09 11.58L132.09 8.95Q132.09 7.66 131.86 6.72Q131.62 5.78 131.06 5.18Q130.51 4.57 129.59 4.28Q128.67 3.98 127.29 3.98L127.29 3.98L126.52 3.98L126.52 17.52ZM145.12 33.65L145.12 4.28L139.75 4.28L139.75 0.29L155.53 0.29L155.53 4.28L150.18 4.28L150.18 33.65L145.12 33.65Z" transform="translate(12 12) scale(1)"></path></svg>